PathFileType	4	(X/Y/Z)	G:\GRF\jawan data\CompiledGRF\03. Mohit Kumar\0231~ac~Standing_markers.trc
DataRate	CameraRate	NumFrames	NumMarkers	Units	OrigDataRate	OrigDataStartFrame	OrigNumFrames
100.000000	100.000000	7	18	mm	100.000000	146	584
Frame#	Time	c7			r should			l should			sacrum			r asis			r bar 1			r knee 1			r bar 2			r mall			r heel			r met			l asis			l bar 1			l knee 1			l bar 2			l mall			l heel			l met			
		X1	Y1	Z1	X2	Y2	Z2	X3	Y3	Z3	X4	Y4	Z4	X5	Y5	Z5	X6	Y6	Z6	X7	Y7	Z7	X8	Y8	Z8	X9	Y9	Z9	X10	Y10	Z10	X11	Y11	Z11	X12	Y12	Z12	X13	Y13	Z13	X14	Y14	Z14	X15	Y15	Z15	X16	Y16	Z16	X17	Y17	Z17	X18	Y18	Z18	

147	1.46	294.6091003417969	1520.036987304688	156.17919921875	384.7801818847656	1459.390258789063	325.7470092773438	377.5648193359375	1472.39306640625	-14.05792713165283	269.197265625	1059.533935546875	138.0058746337891	447.6646423339844	1019.26123046875	269.0470275878906	339.9669494628906	612.74658203125	334.3758239746094	351.9010314941406	524.602294921875	283.4548950195313	287.7337646484375	201.4872741699219	303.2718505859375	302.4917297363281	75.35861206054688	241.9227294921875	251.8158264160156	38.35776519775391	190.1516265869141	453.5957946777344	38.78192520141602	253.1111297607422	454.8273620605469	1026.725830078125	16.16804695129395	348.1049499511719	607.6466674804688	-40.51125335693359	352.3389892578125	518.4027099609375	17.39918899536133	291.6520385742188	243.9434051513672	-18.79583168029785	299.4646301269531	75.33937072753906	57.47220611572266	246.6318359375	34.47533798217773	116.7798461914063	447.5695495605469	39.68265533447266	58.38912582397461	
148	1.47	294.8468933105469	1519.98681640625	156.2434692382813	384.8475952148438	1459.349975585938	325.8066711425781	377.6585388183594	1472.394287109375	-14.01244640350342	269.2177734375	1059.54833984375	138.0586547851563	447.7139282226563	1019.247314453125	269.1301574707031	339.9435119628906	612.7360229492188	334.3931884765625	351.8312072753906	524.6111450195313	283.4957275390625	287.7146911621094	201.4957733154297	303.29296875	302.4218139648438	75.40119934082031	241.8995819091797	251.9302673339844	38.34513473510742	190.1732330322266	453.5289306640625	38.78123474121094	253.1261444091797	454.9346008300781	1026.711547851563	16.21956253051758	348.0727233886719	607.6651611328125	-40.48292922973633	352.3006591796875	518.3760986328125	17.44157409667969	291.6171264648438	243.9803161621094	-18.75841522216797	299.4991455078125	75.26251220703125	57.49826049804688	246.3003845214844	34.71535110473633	116.7834930419922	447.5186157226563	39.62862014770508	58.38744735717773	
149	1.48	294.8987426757813	1519.943237304688	156.3121032714844	384.8166198730469	1459.324829101563	325.8485107421875	377.7649536132813	1472.384155273438	-13.9483814239502	269.2376403808594	1059.570922851563	138.0986175537109	447.8475952148438	1019.200805664063	269.1665954589844	339.9612121582031	612.7518310546875	334.4069213867188	351.9128723144531	524.6224365234375	283.5047912597656	287.6681823730469	201.4967193603516	303.32080078125	302.4323120117188	75.37767028808594	241.9271392822266	251.4837951660156	38.59246826171875	190.1860504150391	453.4884948730469	38.78536987304688	253.1092987060547	454.91796875	1026.736938476563	16.24369239807129	348.09375	607.6990356445313	-40.40689468383789	352.4425964355469	518.4010009765625	17.53998756408691	291.5736999511719	243.9821319580078	-18.7656078338623	299.4739379882813	75.34864807128906	57.43141937255859	246.2022552490234	34.71672821044922	116.804313659668	447.525634765625	39.53410720825195	58.36618804931641	
150	1.49	294.7801513671875	1520.001831054688	156.33837890625	384.7639465332031	1459.313720703125	325.9057312011719	377.9024658203125	1472.3291015625	-13.86922073364258	269.3338928222656	1059.55078125	138.1483306884766	447.9026794433594	1019.204833984375	269.1746826171875	339.9998474121094	612.7953491210938	334.4276428222656	351.9307861328125	524.6192016601563	283.5161743164063	287.642578125	201.4658966064453	303.2946166992188	302.4425354003906	75.37530517578125	241.9237976074219	251.4742584228516	38.55898284912109	190.1736297607422	453.5722045898438	38.80982208251953	253.0863647460938	454.8565063476563	1026.681274414063	16.27101135253906	348.1027526855469	607.68505859375	-40.38651275634766	352.5950622558594	518.4367065429688	17.57391929626465	291.6285400390625	243.9788513183594	-18.79317665100098	299.5107116699219	75.34713745117188	57.40542221069336	246.2218627929688	34.62799453735352	116.7618255615234	447.4765014648438	39.56165313720703	58.30805587768555	
151	1.5	294.8294677734375	1519.99267578125	156.3851318359375	384.812744140625	1459.263061523438	325.953369140625	377.8711853027344	1472.296020507813	-13.80342102050781	269.3302612304688	1059.578125	138.1995391845703	447.7974853515625	1019.209167480469	269.1991271972656	339.9782104492188	612.7822875976563	334.4435729980469	351.8878784179688	524.6159057617188	283.583984375	287.6167907714844	201.5035095214844	303.321044921875	302.450439453125	75.35448455810547	241.9164733886719	251.6338195800781	38.47032928466797	190.1569671630859	453.5469360351563	38.79248809814453	253.1115112304688	454.9765014648438	1026.67138671875	16.31650161743164	348.1147766113281	607.7002563476563	-40.35697555541992	352.58251953125	518.4618530273438	17.56002235412598	291.6331481933594	243.9948272705078	-18.78071212768555	299.6073913574219	75.25396728515625	57.45701599121094	246.5538177490234	34.50159072875977	116.7775955200195	447.5317077636719	39.58489227294922	58.32065200805664	
152	1.51	295.0545349121094	1519.925537109375	156.4661254882813	384.84130859375	1459.234497070313	325.9833679199219	377.9393615722656	1472.275268554688	-13.76872730255127	269.351318359375	1059.58837890625	138.2133026123047	447.8514099121094	1019.237182617188	269.2483520507813	339.9031372070313	612.7279663085938	334.458984375	351.8447875976563	524.6231689453125	283.6071166992188	287.6993713378906	201.4914703369141	303.3336486816406	302.4241943359375	75.33778381347656	241.900390625	251.5438537597656	38.48537063598633	190.1703186035156	453.4837036132813	38.75740432739258	253.0924682617188	455.1058349609375	1026.690063476563	16.34832000732422	348.1572875976563	607.7012329101563	-40.33706665039063	352.6280822753906	518.4458618164063	17.55490875244141	291.6732788085938	243.9704895019531	-18.77690124511719	299.5319213867188	75.27954864501953	57.50043869018555	247.0124359130859	34.3211669921875	116.8367080688477	447.5521850585938	39.59830093383789	58.31607055664063	
153	1.52	295.173583984375	1519.898803710938	156.5407562255859	384.92822265625	1459.209716796875	326.0541687011719	378.0496215820313	1472.224975585938	-13.72422885894775	269.4989929199219	1059.567016601563	138.2365264892578	447.9531555175781	1019.207458496094	269.2788696289063	339.9755249023438	612.7319946289063	334.5180358886719	351.8121337890625	524.5736083984375	283.6077270507813	287.6257934570313	201.5169219970703	303.3064575195313	302.45947265625	75.30992889404297	241.9247131347656	251.6136779785156	38.46017074584961	190.1834259033203	453.4792785644531	38.74708557128906	253.1012878417969	455.0844116210938	1026.655639648438	16.37037658691406	348.1503601074219	607.7059326171875	-40.31048965454102	352.6036987304688	518.42919921875	17.60663032531738	291.6851196289063	243.9700622558594	-18.76807594299316	299.4965209960938	75.38514709472656	57.48299407958984	246.8873443603516	34.36175918579102	116.8177185058594	447.47705078125	39.60644912719727	58.31835174560547	
